<mxfile host="app.diagrams.net" modified="2023-04-21T06:52:44.921Z" agent="Mozilla/5.0 (Macintosh; Intel Mac OS X 10_15_7) AppleWebKit/537.36 (KHTML, like Gecko) Chrome/112.0.0.0 Safari/537.36" etag="aLAbNm2Z5L-7dDVRipFw" version="21.2.1" type="github">
  <diagram name="第 1 页" id="QBF703WfC1bJtobeGhCa">
    <mxGraphModel dx="1627" dy="831" grid="0" gridSize="10" guides="1" tooltips="1" connect="1" arrows="1" fold="1" page="1" pageScale="1" pageWidth="827" pageHeight="5000" math="0" shadow="0">
      <root>
        <mxCell id="0" />
        <mxCell id="1" parent="0" />
        <mxCell id="PcVWDQf7pGQgmWW3qAXG-42" value="" style="rounded=0;whiteSpace=wrap;html=1;" parent="1" vertex="1">
          <mxGeometry x="162" y="96" width="552" height="156" as="geometry" />
        </mxCell>
        <mxCell id="PcVWDQf7pGQgmWW3qAXG-22" value="DS A" style="shape=cylinder3;whiteSpace=wrap;html=1;boundedLbl=1;backgroundOutline=1;size=15;fillColor=#e1d5e7;strokeColor=#9673a6;" parent="1" vertex="1">
          <mxGeometry x="190" y="131" width="60" height="80" as="geometry" />
        </mxCell>
        <mxCell id="PcVWDQf7pGQgmWW3qAXG-23" value="DS B" style="shape=cylinder3;whiteSpace=wrap;html=1;boundedLbl=1;backgroundOutline=1;size=15;fillColor=#e1d5e7;strokeColor=#9673a6;" parent="1" vertex="1">
          <mxGeometry x="620" y="131" width="60" height="80" as="geometry" />
        </mxCell>
        <mxCell id="PcVWDQf7pGQgmWW3qAXG-24" value="" style="rounded=1;whiteSpace=wrap;html=1;fillColor=#dae8fc;strokeColor=#6c8ebf;" parent="1" vertex="1">
          <mxGeometry x="309" y="131.5" width="240" height="79" as="geometry" />
        </mxCell>
        <mxCell id="PcVWDQf7pGQgmWW3qAXG-33" value="" style="endArrow=classic;html=1;rounded=0;fillColor=#f8cecc;strokeColor=#b85450;" parent="1" edge="1">
          <mxGeometry width="50" height="50" relative="1" as="geometry">
            <mxPoint x="390" y="157" as="sourcePoint" />
            <mxPoint x="460" y="157" as="targetPoint" />
          </mxGeometry>
        </mxCell>
        <mxCell id="PcVWDQf7pGQgmWW3qAXG-35" value="" style="endArrow=classic;html=1;rounded=0;fillColor=#fff2cc;strokeColor=#d6b656;" parent="1" edge="1">
          <mxGeometry width="50" height="50" relative="1" as="geometry">
            <mxPoint x="460" y="187" as="sourcePoint" />
            <mxPoint x="390" y="187" as="targetPoint" />
          </mxGeometry>
        </mxCell>
        <mxCell id="PcVWDQf7pGQgmWW3qAXG-39" value="Channel" style="text;html=1;strokeColor=none;fillColor=none;align=center;verticalAlign=middle;whiteSpace=wrap;rounded=0;" parent="1" vertex="1">
          <mxGeometry x="489" y="124" width="60" height="30" as="geometry" />
        </mxCell>
        <mxCell id="PcVWDQf7pGQgmWW3qAXG-40" value="pipeline" style="edgeLabel;html=1;align=center;verticalAlign=middle;resizable=0;points=[];rotation=-30;" parent="1" vertex="1" connectable="0">
          <mxGeometry x="583.0029032258064" y="171.0000000000001" as="geometry" />
        </mxCell>
        <mxCell id="PcVWDQf7pGQgmWW3qAXG-29" value="" style="shape=link;html=1;rounded=0;width=10;fillColor=#f8cecc;strokeColor=#b85450;" parent="1" edge="1">
          <mxGeometry width="100" relative="1" as="geometry">
            <mxPoint x="260" y="157" as="sourcePoint" />
            <mxPoint x="610" y="157" as="targetPoint" />
          </mxGeometry>
        </mxCell>
        <mxCell id="PcVWDQf7pGQgmWW3qAXG-38" value="pipeline" style="edgeLabel;html=1;align=center;verticalAlign=middle;resizable=0;points=[];rotation=-30;" parent="PcVWDQf7pGQgmWW3qAXG-29" vertex="1" connectable="0">
          <mxGeometry x="-0.9347" y="4" relative="1" as="geometry">
            <mxPoint x="10" y="18" as="offset" />
          </mxGeometry>
        </mxCell>
        <mxCell id="PcVWDQf7pGQgmWW3qAXG-34" value="" style="shape=link;html=1;rounded=0;width=10;fillColor=#fff2cc;strokeColor=#d6b656;" parent="1" edge="1">
          <mxGeometry width="100" relative="1" as="geometry">
            <mxPoint x="260" y="187" as="sourcePoint" />
            <mxPoint x="610" y="187" as="targetPoint" />
          </mxGeometry>
        </mxCell>
        <mxCell id="NRlv5K5fv_qLAyJL0CGP-3" value="" style="rounded=0;whiteSpace=wrap;html=1;fillColor=#f5f5f5;strokeColor=#666666;fontColor=#333333;" vertex="1" parent="1">
          <mxGeometry x="170" y="344.5" width="525" height="110" as="geometry" />
        </mxCell>
        <mxCell id="NRlv5K5fv_qLAyJL0CGP-6" value="" style="rounded=1;whiteSpace=wrap;html=1;fillColor=#dae8fc;strokeColor=#6c8ebf;" vertex="1" parent="1">
          <mxGeometry x="187" y="368" width="219" height="63" as="geometry" />
        </mxCell>
        <mxCell id="NRlv5K5fv_qLAyJL0CGP-5" value="E" style="rounded=0;whiteSpace=wrap;html=1;fillColor=#ffe6cc;strokeColor=#d79b00;" vertex="1" parent="1">
          <mxGeometry x="209.5" y="393.5" width="36" height="25" as="geometry" />
        </mxCell>
        <mxCell id="NRlv5K5fv_qLAyJL0CGP-7" value="T" style="rounded=0;whiteSpace=wrap;html=1;fillColor=#ffe6cc;strokeColor=#d79b00;" vertex="1" parent="1">
          <mxGeometry x="257.5" y="393.5" width="36" height="25" as="geometry" />
        </mxCell>
        <mxCell id="NRlv5K5fv_qLAyJL0CGP-8" value="L" style="rounded=0;whiteSpace=wrap;html=1;fillColor=#ffe6cc;strokeColor=#d79b00;" vertex="1" parent="1">
          <mxGeometry x="304.5" y="393.5" width="36" height="25" as="geometry" />
        </mxCell>
        <mxCell id="NRlv5K5fv_qLAyJL0CGP-4" value="任务实例" style="text;html=1;strokeColor=none;fillColor=none;align=center;verticalAlign=middle;whiteSpace=wrap;rounded=0;" vertex="1" parent="1">
          <mxGeometry x="344" y="371" width="60" height="30" as="geometry" />
        </mxCell>
        <mxCell id="NRlv5K5fv_qLAyJL0CGP-11" value="任务实例" style="rounded=1;whiteSpace=wrap;html=1;fillColor=#dae8fc;strokeColor=#6c8ebf;" vertex="1" parent="1">
          <mxGeometry x="424" y="368" width="86.5" height="63" as="geometry" />
        </mxCell>
        <mxCell id="NRlv5K5fv_qLAyJL0CGP-12" value="任务实例" style="rounded=1;whiteSpace=wrap;html=1;fillColor=#dae8fc;strokeColor=#6c8ebf;" vertex="1" parent="1">
          <mxGeometry x="530" y="368" width="86.5" height="63" as="geometry" />
        </mxCell>
        <mxCell id="NRlv5K5fv_qLAyJL0CGP-2" value="Worker" style="text;html=1;strokeColor=none;fillColor=none;align=center;verticalAlign=middle;whiteSpace=wrap;rounded=0;" vertex="1" parent="1">
          <mxGeometry x="628" y="355" width="60" height="30" as="geometry" />
        </mxCell>
        <mxCell id="NRlv5K5fv_qLAyJL0CGP-14" value="" style="rounded=0;whiteSpace=wrap;html=1;fillColor=#f5f5f5;strokeColor=#666666;fontColor=#333333;" vertex="1" parent="1">
          <mxGeometry x="170" y="549" width="523" height="236" as="geometry" />
        </mxCell>
        <mxCell id="NRlv5K5fv_qLAyJL0CGP-15" value="" style="rounded=1;whiteSpace=wrap;html=1;fillColor=#dae8fc;strokeColor=#6c8ebf;" vertex="1" parent="1">
          <mxGeometry x="190" y="581" width="190" height="187.5" as="geometry" />
        </mxCell>
        <mxCell id="NRlv5K5fv_qLAyJL0CGP-17" value="T" style="rounded=0;whiteSpace=wrap;html=1;fillColor=#ffe6cc;strokeColor=#d79b00;" vertex="1" parent="1">
          <mxGeometry x="271.5" y="658.5" width="36" height="25" as="geometry" />
        </mxCell>
        <mxCell id="NRlv5K5fv_qLAyJL0CGP-18" value="L" style="rounded=0;whiteSpace=wrap;html=1;fillColor=#ffe6cc;strokeColor=#d79b00;" vertex="1" parent="1">
          <mxGeometry x="321" y="658.5" width="36" height="25" as="geometry" />
        </mxCell>
        <mxCell id="NRlv5K5fv_qLAyJL0CGP-19" value="任务组实例" style="text;html=1;strokeColor=none;fillColor=none;align=center;verticalAlign=middle;whiteSpace=wrap;rounded=0;" vertex="1" parent="1">
          <mxGeometry x="284" y="602.5" width="70" height="30" as="geometry" />
        </mxCell>
        <mxCell id="NRlv5K5fv_qLAyJL0CGP-20" value="任务组实例" style="rounded=1;whiteSpace=wrap;html=1;fillColor=#dae8fc;strokeColor=#6c8ebf;" vertex="1" parent="1">
          <mxGeometry x="418" y="585" width="88" height="183.5" as="geometry" />
        </mxCell>
        <mxCell id="NRlv5K5fv_qLAyJL0CGP-22" value="Worker" style="text;html=1;strokeColor=none;fillColor=none;align=center;verticalAlign=middle;whiteSpace=wrap;rounded=0;" vertex="1" parent="1">
          <mxGeometry x="625" y="555" width="60" height="30" as="geometry" />
        </mxCell>
        <mxCell id="NRlv5K5fv_qLAyJL0CGP-23" value="E2" style="rounded=0;whiteSpace=wrap;html=1;fillColor=#ffe6cc;strokeColor=#d79b00;" vertex="1" parent="1">
          <mxGeometry x="215" y="626.25" width="36" height="25" as="geometry" />
        </mxCell>
        <mxCell id="NRlv5K5fv_qLAyJL0CGP-24" value="..." style="rounded=0;whiteSpace=wrap;html=1;fillColor=#ffe6cc;strokeColor=#d79b00;" vertex="1" parent="1">
          <mxGeometry x="215" y="694.5" width="36" height="26" as="geometry" />
        </mxCell>
        <mxCell id="NRlv5K5fv_qLAyJL0CGP-25" value="En" style="rounded=0;whiteSpace=wrap;html=1;fillColor=#ffe6cc;strokeColor=#d79b00;" vertex="1" parent="1">
          <mxGeometry x="215" y="728.5" width="36" height="25" as="geometry" />
        </mxCell>
        <mxCell id="NRlv5K5fv_qLAyJL0CGP-26" value="E3" style="rounded=0;whiteSpace=wrap;html=1;fillColor=#ffe6cc;strokeColor=#d79b00;" vertex="1" parent="1">
          <mxGeometry x="215" y="658.5" width="36" height="25" as="geometry" />
        </mxCell>
        <mxCell id="NRlv5K5fv_qLAyJL0CGP-16" value="E1" style="rounded=0;whiteSpace=wrap;html=1;fillColor=#ffe6cc;strokeColor=#d79b00;" vertex="1" parent="1">
          <mxGeometry x="215" y="593.5" width="36" height="25" as="geometry" />
        </mxCell>
        <mxCell id="NRlv5K5fv_qLAyJL0CGP-27" value="任务组实例" style="rounded=1;whiteSpace=wrap;html=1;fillColor=#dae8fc;strokeColor=#6c8ebf;" vertex="1" parent="1">
          <mxGeometry x="529.5" y="585" width="87" height="183.5" as="geometry" />
        </mxCell>
      </root>
    </mxGraphModel>
  </diagram>
</mxfile>
